:SAMPLES-PER-SECOND 30
:FULLY-SPECIFIED
:DEGREES
85
root  24.9628893 39.32333218 39.35577813 -4.611780167 6.684080124 3.684370041
lowerback  8.721389771 -0.9141229987 -6.03482008
upperback  1.752979994 -1.704570055 1.731600046
thorax  -2.834039927 -0.7993770242 5.395480156
lowerneck  -16.74650002 -5.570919991 -14.66419983
upperneck  26.26720047 -6.158710003 8.722060204
head  12.19810009 -3.155250072 4.825789928
lclavicle  0 -5.34481991e-014 2.981770104e-014
lhumerus  -34.67910004 6.917960167 80.87740326
lradius  -2.505965173e-031 -2.487766587e-031 44.79119873
lwrist  -7.062250077e-031 -0 6.12018013
lhand  -1.429450611e-030 -8.845379829 33.10290146
lfingers  90 7.125020027 -90
lthumb  95.25400513 16.58057472 72.13860695
rclavicle  0 -5.34481991e-014 2.981770104e-014
rhumerus  -36.42990112 -19.73489952 -71.5943985
rradius  3.302910516e-031 1.248849935e-031 20.71190071
rwrist  1.059337512e-030 -3.531125038e-031 14.52560043
rhand  -0 -19.54719925 16.59910011
rfingers  -90 -7.125020027 -90
rthumb  -85.82711614 -31.48041856 -82.0464661
rfemur  -24.32040024 -2.930819988 14.76650047
rtibia  -0 0 25.15439987
rfoot  -0 -7.569190025 -12.79909992
rtoes  1.066041327 19.97273056 -93.11825562
lfemur  11.48200035 2.964819908 -25.11809921
ltibia  -0 0 16.89419937
lfoot  -0 -15.99359989 -7.634890079
ltoes  -8.439091028 -18.19880318 -115.4099194
86
root  24.92777757 39.32533264 39.68533193 -4.487410069 6.836949825 3.49861002
lowerback  9.003100395 -0.9576330185 -5.913609982
upperback  1.52098 -1.771559954 1.759260058
thorax  -3.227119923 -0.8131890297 5.377140045
lowerneck  -16.8302002 -5.609210014 -14.72770023
upperneck  26.59609985 -6.26086998 8.920889854
head  12.3696003 -3.188199997 4.909150124
lclavicle  0 -5.34481991e-014 2.981770104e-014
lhumerus  -34.6385994 6.619369984 80.63929749
lradius  -2.490555522e-031 -2.503193406e-031 45.14500046
lwrist  -7.062250077e-031 -3.531125038e-031 6.052340031
lhand  -7.150225786e-031 -8.997159958 32.03839874
lfingers  90 7.125020027 -90
lthumb  94.87847998 15.59158852 72.38250028
rclavicle  0 -5.34481991e-014 2.981770104e-014
rhumerus  -37.13130188 -19.73760033 -71.42320251
rradius  3.302072815e-031 1.251063213e-031 20.75029945
rwrist  7.062250077e-031 -3.531125038e-031 14.24699974
rhand  -0 -18.76460075 14.93799973
rfingers  -90 -7.125020027 -90
rthumb  -85.65591349 -29.80600363 -81.31096925
rfemur  -23.84379959 -1.773880005 14.66429996
rtibia  -0 0 22.49869919
rfoot  -0 -8.341190338 -13.00380039
rtoes  1.682396972 19.93200089 -94.92435308
lfemur  12.29119968 2.872260094 -24.74580002
ltibia  -0 0 16.07710075
lfoot  -0 -15.70119953 -7.824170113
ltoes  -8.652044907 -18.10118952 -116.0935393
87
root  24.89622221 39.31888971 40.01733374 -4.303709984 7.011779785 3.571039915
lowerback  9.020600319 -1.04282999 -6.05603981
upperback  1.422539949 -1.902089953 1.751510024
thorax  -3.317620039 -0.8707290292 5.467010021
lowerneck  -17.15239906 -5.660950184 -15.27120018
upperneck  27.04660034 -6.361559868 9.633749962
head  12.68000031 -3.204119921 5.286149979
lclavicle  0 -5.34481991e-014 2.981770104e-014
lhumerus  -34.45679855 6.562250137 80.3993988
lradius  -2.478130524e-031 -2.515494612e-031 45.42869949
lwrist  -1.412450015e-030 -0 5.867959976
lhand  -7.147495106e-031 -8.857839584 32.33330154
lfingers  90 7.125020027 -90
lthumb  95.00556029 15.84992548 72.21946359
rclavicle  0 -5.34481991e-014 2.981770104e-014
rhumerus  -37.54090118 -19.75009918 -71.3470993
rradius  3.300765249e-031 1.254508991e-031 20.81010056
rwrist  7.062250077e-031 -3.531125038e-031 14.03600025
rhand  -0 -17.81719971 12.74520016
rfingers  -90 -7.125020027 -90
rthumb  -85.54644509 -27.60505981 -80.45864592
rfemur  -23.59560013 -0.4253459871 14.14589977
rtibia  -0 0 20.27669907
rfoot  -0 -9.29049015 -13.27420044
rtoes  2.496971451 19.84985211 -97.31822769
lfemur  13.03989983 2.753070116 -24.68799973
ltibia  -0 0 15.23079967
lfoot  -0 -15.32540035 -7.964739799
ltoes  -8.583142109 -18.13310516 -115.8719593
88
root  24.89444402 39.3037781 40.37022328 -4.246260166 7.281239986 3.763710022
lowerback  9.053009987 -1.168089986 -6.152579784
upperback  1.383640051 -2.082479954 1.709370017
thorax  -3.349550009 -0.9572799802 5.499030113
lowerneck  -17.52860069 -5.695509911 -15.59399986
upperneck  27.48320007 -6.364250183 9.920909882
head  12.96179962 -3.204699993 5.474730015
lclavicle  0 -5.34481991e-014 2.981770104e-014
lhumerus  -34.22579956 6.48555994 80.28070068
lradius  -2.469577001e-031 -2.523892524e-031 45.62319946
lwrist  -1.412450015e-030 -0 5.806369781
lhand  -1.429095701e-030 -8.753470421 33.14699936
lfingers  90 7.125020027 -90
lthumb  95.29191603 16.60708685 72.04342034
rclavicle  0 -5.34481991e-014 2.981770104e-014
rhumerus  -37.89139938 -19.7894001 -71.17900085
rradius  3.300259201e-031 1.255839656e-031 20.83320045
rwrist  3.531125038e-031 -3.531125038e-031 14.11289978
rhand  -0 -19.14640045 14.89210033
rfingers  -90 -7.125020027 -90
rthumb  -85.87630289 -29.77515389 -81.7394466
rfemur  -23.33399963 -0.06837169826 13.6196003
rtibia  -0 0 18.65859985
rfoot  -0 -10.00469971 -12.73849964
rtoes  2.981335116 19.7855465 -98.74684299
lfemur  13.96440029 2.512389898 -24.85919952
ltibia  -0 0 14.44709969
lfoot  -0 -15.07299995 -7.990419865
ltoes  -8.176282283 -18.31513362 -114.5710374
89
root  24.87599981 39.28222356 40.7173337 -4.200079918 7.514359951 3.833800077
lowerback  9.04625988 -1.248260021 -6.191189766
upperback  1.413509965 -2.19253993 1.686280012
thorax  -3.298619986 -1.014410019 5.507339954
lowerneck  -17.64439964 -5.71352005 -15.57929993
upperneck  27.57110023 -6.369669914 9.88463974
head  13.02140045 -3.209150076 5.459589958
lclavicle  0 -5.34481991e-014 2.981770104e-014
lhumerus  -33.70059967 6.177460194 80.29109955
lradius  -2.466112249e-031 -2.527278064e-031 45.7018013
lwrist  0 -0 6.269609928
lhand  -0 -8.516160011 34.35020065
lfingers  90 7.125020027 -90
lthumb  95.74748423 17.70956951 71.69178114
rclavicle  0 -5.34481991e-014 2.981770104e-014
rhumerus  -38.16320038 -20.05999947 -70.96710205
rradius  3.303198159e-031 1.248088922e-031 20.69869995
rwrist  3.531125038e-031 -3.531125038e-031 14.34440041
rhand  -0 -19.6154995 14.69890022
rfingers  -90 -7.125020027 -90
rthumb  -86.16717916 -29.60049371 -82.27599605
rfemur  -23.16160011 0.1382980049 13.36620045
rtibia  -0 0 17.57780075
rfoot  -0 -10.62269974 -12.16749954
rtoes  3.215338864 19.75030234 -99.43872209
lfemur  14.84920025 2.196630001 -24.89240074
ltibia  -0 0 13.79889965
lfoot  -0 -15.00559998 -7.852270126
ltoes  -7.760078791 -18.49023656 -113.2527129
